<?xml version="1.0" standalone="no"?>
<!DOCTYPE svg PUBLIC "-//W3C//DTD SVG 20010904//EN"
 "http://www.w3.org/TR/2001/REC-SVG-20010904/DTD/svg10.dtd">
<svg version="1.0" xmlns="http://www.w3.org/2000/svg"
 width="300.000000pt" height="300.000000pt" viewBox="0 0 300.000000 300.000000"
 preserveAspectRatio="xMidYMid meet">
<metadata>
Created by potrace 1.10, written by Peter Selinger 2001-2011
</metadata>
<g transform="translate(0.000000,300.000000) scale(0.100000,-0.100000)"
fill="#000000" stroke="none">
<path d="M1423 2405 c-28 -14 -81 -53 -117 -86 -82 -76 -143 -190 -150 -282
-4 -58 -4 -59 27 -73 36 -15 67 -38 67 -48 0 -12 -15 -6 -44 19 -29 25 -53 34
-42 16 4 -5 2 -11 -3 -13 -5 -1 -3 -24 4 -50 l12 -48 -41 -20 c-61 -29 -143
-106 -176 -164 -32 -55 -41 -137 -19 -177 16 -31 29 -13 29 40 0 27 7 65 16
86 18 45 93 126 153 168 42 29 45 29 58 11 12 -16 10 -21 -19 -43 -93 -70
-151 -155 -162 -236 -6 -39 -5 -39 8 7 21 71 59 129 121 187 62 56 71 60 79
33 4 -13 -9 -34 -44 -70 -76 -79 -122 -186 -100 -237 6 -15 9 -9 9 27 1 65 32
130 92 193 56 60 64 63 73 39 4 -11 -8 -35 -33 -68 -58 -75 -84 -138 -79 -196
2 -34 0 -46 -8 -39 -6 5 -21 11 -35 13 -13 3 -26 5 -29 6 -3 2 -9 2 -13 1 -4
-1 -15 13 -23 31 -9 19 -13 24 -11 11 5 -21 4 -21 -19 -6 -13 8 -24 20 -24 26
0 7 -5 6 -12 -2 -16 -15 14 -41 90 -78 78 -37 147 -53 229 -53 88 0 207 35
198 57 -3 8 -5 19 -5 24 0 5 -5 9 -11 9 -5 0 -9 -10 -7 -22 2 -18 -1 -22 -16
-20 -12 2 -16 -1 -11 -10 4 -7 0 -6 -10 4 -13 12 -16 25 -11 52 4 20 11 34 16
31 5 -3 7 -19 3 -35 -3 -20 -1 -30 6 -30 7 0 10 3 8 8 -3 4 -2 24 2 46 4 28
12 41 29 47 23 9 23 8 17 -46 -5 -40 -4 -55 5 -55 6 0 11 12 10 28 -4 51 0 82
10 82 5 0 7 -22 3 -52 -3 -29 -3 -50 0 -47 4 3 9 25 12 49 5 39 24 89 25 65 0
-6 10 -11 23 -12 21 -2 21 -1 3 13 -17 12 -18 14 -3 14 9 0 17 5 17 11 0 6 -9
8 -21 4 -14 -5 -28 0 -44 15 -25 23 -24 51 3 72 13 11 15 10 9 -4 -16 -41 -17
-52 -4 -29 l14 23 8 -23 c4 -13 6 -31 6 -39 -1 -11 0 -12 7 -2 7 10 13 8 30
-6 23 -20 30 -38 10 -26 -8 5 -9 2 -5 -9 3 -10 2 -17 -3 -17 -6 0 -10 -7 -10
-15 0 -8 -5 -15 -11 -15 -5 0 -8 4 -5 8 2 4 -4 8 -15 8 -13 0 -19 -7 -19 -22
0 -12 -3 -30 -7 -40 -6 -16 -5 -17 9 -4 9 8 14 18 11 22 -2 4 2 5 10 3 7 -3
21 3 31 14 17 19 18 18 71 -13 29 -18 88 -41 130 -51 66 -15 84 -16 132 -5 70
15 120 59 133 115 12 54 -3 186 -30 257 -29 79 -99 171 -154 203 -43 25 -46
26 -71 9 -31 -20 -27 -28 9 -15 29 12 59 4 53 -13 -2 -6 -19 -19 -38 -28 -42
-21 -31 -23 18 -3 44 19 47 19 39 -1 -5 -14 -4 -15 9 -4 9 7 19 10 23 6 4 -4
-2 -14 -12 -22 -11 -7 -17 -17 -13 -20 4 -4 13 -1 22 6 21 18 28 8 11 -16 -12
-16 -18 -17 -34 -7 -11 6 -30 9 -43 7 l-24 -6 25 21 c14 11 20 21 13 21 -6 0
-14 -4 -18 -9 -8 -14 -46 -4 -64 15 -12 12 -12 15 -2 9 9 -5 12 -4 7 3 -4 6
-13 9 -21 5 -8 -3 -15 0 -15 6 0 6 5 11 10 11 6 0 10 5 10 10 0 7 -6 7 -19 0
-11 -5 -22 -6 -25 -2 -3 5 13 15 35 22 22 8 43 18 46 23 4 6 1 7 -7 2 -10 -6
-12 -4 -7 9 6 14 3 17 -9 12 -8 -3 -18 -6 -20 -6 -2 0 -4 -5 -4 -11 0 -5 6 -7
13 -3 9 5 9 4 1 -5 -10 -11 -74 -34 -74 -26 0 2 -2 10 -5 17 -4 10 7 19 37 28
l43 14 -37 10 -38 10 0 71 c0 140 -53 250 -142 296 -50 25 -84 24 -145 -6z
m136 0 c49 -25 97 -91 120 -163 22 -70 29 -192 11 -192 -5 0 -10 24 -10 53 0
135 -66 264 -155 303 -19 9 -24 13 -12 14 10 0 31 -7 46 -15z m-1 -33 c41 -30
77 -91 96 -167 18 -67 21 -155 6 -155 -5 0 -10 22 -10 48 0 102 -59 232 -125
272 -44 27 -56 25 -14 -3 40 -27 94 -103 109 -155 6 -20 14 -64 17 -97 5 -57
4 -61 -16 -61 -11 0 -21 5 -21 11 0 5 -4 3 -9 -4 -11 -17 -21 3 -42 83 -23 91
-112 196 -165 196 -11 0 -2 -8 23 -19 48 -22 94 -80 121 -155 26 -69 37 -120
24 -112 -6 3 -14 21 -18 39 -19 86 -88 188 -144 213 l-40 18 22 23 c13 13 34
23 52 24 17 1 23 3 13 6 -32 8 -8 20 40 19 33 -1 58 -8 81 -24z m-169 -77 c16
-8 43 -32 60 -54 37 -46 84 -155 78 -180 -3 -13 -5 -13 -12 4 -32 85 -72 155
-106 187 -22 21 -45 38 -51 38 -6 0 9 -18 33 -39 40 -35 80 -100 109 -175 9
-24 7 -26 -15 -26 -20 0 -29 10 -47 47 -12 26 -44 70 -70 97 -27 28 -47 55
-45 60 7 21 98 -79 127 -138 16 -33 30 -55 30 -48 0 22 -47 106 -82 144 -18
20 -51 46 -73 58 -24 13 -32 21 -20 19 33 -2 41 1 25 11 -25 16 27 12 59 -5z
m-77 -71 c17 -9 39 -24 49 -33 19 -18 89 -130 89 -143 0 -20 -17 -4 -39 37
-26 50 -112 135 -136 135 -8 0 -15 5 -15 10 0 14 16 12 52 -6z m8 -42 c32 -24
103 -128 98 -144 -3 -7 -20 12 -40 43 -40 62 -91 109 -118 109 -10 0 -22 5
-26 12 -11 17 56 2 86 -20z m-32 -30 c2 -7 -11 -5 -36 6 -22 9 -38 20 -36 24
7 10 67 -15 72 -30z m-14 -24 c20 -22 16 -36 -5 -15 -8 7 -27 17 -42 21 -15 3
-25 11 -22 17 9 13 46 1 69 -23z m83 -35 c23 -32 39 -62 36 -67 -4 -5 -14 1
-22 14 -9 14 -28 39 -43 56 -27 31 -36 54 -20 54 4 0 26 -26 49 -57z m-102 13
c7 -7 11 -28 10 -47 -2 -19 -4 -40 -4 -47 -1 -8 -6 -10 -13 -6 -10 6 -10 4 -2
-7 5 -8 9 -20 8 -26 -1 -7 -2 -18 -3 -24 0 -5 -6 -7 -12 -3 -8 4 -7 9 2 16 11
7 9 8 -4 4 -11 -4 -31 3 -48 15 -34 24 -32 36 3 19 18 -9 17 -6 -7 14 -27 23
-28 25 -7 21 26 -5 28 3 5 21 -28 21 2 16 44 -7 l38 -21 -30 26 c-16 14 -37
26 -44 26 -11 0 -12 3 -4 11 8 8 20 6 44 -7 28 -14 32 -14 21 -2 -7 9 -24 19
-37 22 -14 4 -25 11 -25 17 0 14 47 3 65 -15z m95 -53 c17 -26 38 -48 47 -48
17 0 47 -71 39 -92 -10 -24 -23 -13 -40 32 -10 24 -33 61 -53 82 -35 38 -35
38 -11 4 17 -25 20 -35 10 -38 -10 -4 -10 -10 3 -29 18 -28 6 -32 -17 -6 -22
25 -34 67 -17 56 11 -6 12 -5 3 7 -12 16 -16 91 -4 84 4 -3 22 -26 40 -52z
m140 -44 c0 -10 4 -19 9 -19 4 0 7 12 4 28 -3 23 -2 24 6 7 13 -27 13 -58 1
-50 -6 4 -10 -5 -9 -22 1 -16 3 -21 6 -11 3 14 9 15 29 8 15 -6 24 -6 24 0 0
6 -7 10 -15 10 -9 0 -16 10 -16 25 -1 14 -2 31 -3 38 -1 14 44 18 62 4 6 -5
12 -6 12 -1 0 5 4 4 8 -2 4 -6 17 -14 29 -18 18 -6 21 -4 16 15 -4 14 -2 20 4
16 5 -4 9 -22 8 -41 -2 -28 0 -33 13 -28 11 4 14 1 9 -11 -4 -11 -2 -14 9 -10
7 3 15 1 15 -3 6 -42 4 -56 -8 -61 -8 -3 -18 -2 -22 3 -3 5 -15 10 -26 10 -11
1 -44 5 -72 9 -48 7 -53 6 -54 -11 0 -18 -1 -18 -9 1 -7 14 -9 3 -8 -40 1 -51
-1 -60 -15 -57 -9 2 -17 -3 -17 -9 0 -7 -2 -10 -5 -7 -10 10 7 38 19 31 6 -4
5 1 -3 10 -9 11 -10 17 -2 17 6 0 11 17 10 43 -1 36 -2 38 -9 17 -4 -14 -8
-18 -9 -10 -2 26 -22 92 -27 87 -2 -2 2 -30 11 -63 20 -77 20 -77 -15 -59 -35
18 -38 28 -11 41 20 9 20 10 0 64 -23 65 -23 71 -3 45 16 -20 16 -20 9 3 -7
23 9 32 18 10 3 -8 6 -5 6 5 1 24 21 11 21 -14z m-100 -71 c0 -13 -12 -9 -26
10 -7 9 -13 24 -13 32 -1 10 6 6 19 -10 11 -14 20 -28 20 -32z m-156 -44 c3
-9 -1 -11 -12 -7 -14 6 -15 4 -4 -9 10 -13 10 -17 -4 -22 -10 -4 -22 -1 -28 5
-8 9 -6 10 7 5 13 -4 17 -2 14 6 -2 7 -11 13 -19 12 -8 -1 -15 4 -15 11 0 7 7
11 16 8 13 -4 13 -2 -1 10 -10 8 -18 17 -18 21 0 11 59 -26 64 -40z m92 15 c3
-6 0 -15 -7 -20 -8 -5 -9 -9 -3 -9 6 0 17 -13 24 -29 11 -27 14 -29 36 -19 27
13 32 28 9 28 -8 0 -15 2 -15 4 0 2 -3 11 -6 20 -4 11 -1 16 11 16 9 0 19 -9
22 -19 3 -11 22 -27 44 -35 39 -16 39 -16 25 -44 l-14 -27 43 0 c35 0 41 2 32
14 -9 11 -7 12 8 9 11 -2 19 -11 19 -21 -1 -9 2 -14 7 -11 5 3 9 0 9 -6 0 -12
83 -50 108 -49 9 0 1 7 -18 15 l-35 14 45 -5 c40 -4 42 -3 15 5 -16 6 -42 8
-57 4 -15 -3 -29 0 -34 7 -5 9 -2 10 10 6 11 -5 15 -3 10 5 -5 7 1 9 20 4 14
-3 46 -9 71 -13 25 -3 45 -10 45 -14 0 -5 -5 -9 -11 -9 -5 0 -7 -4 -4 -10 3
-5 -4 -11 -17 -11 -17 -1 -18 -3 -5 -6 9 -2 17 -9 17 -14 0 -6 -5 -7 -12 -3
-8 5 -9 2 -5 -9 3 -10 2 -17 -3 -17 -6 0 -10 6 -10 14 0 8 -5 18 -11 22 -14 8
-1 -38 13 -47 5 -3 -7 -23 -27 -45 -29 -31 -38 -35 -45 -24 -6 10 -10 11 -10
3 0 -7 8 -16 17 -22 10 -5 16 -12 13 -14 -8 -7 -80 42 -80 55 0 6 9 3 20 -7
11 -10 20 -13 20 -7 0 7 -4 12 -8 12 -14 0 -53 41 -47 49 8 14 -23 34 -41 27
-9 -4 -14 -1 -12 6 5 15 55 22 63 8 4 -6 -1 -7 -11 -3 -24 9 -9 -13 18 -28 16
-9 19 -8 12 3 -21 34 -2 55 40 42 30 -9 19 -2 -42 30 l-53 27 17 -26 c15 -23
15 -25 0 -25 -11 0 -14 4 -10 13 6 9 5 9 -8 0 -17 -14 -31 -6 -21 11 4 6 8 17
9 24 2 10 -2 10 -15 -2 -21 -19 -32 -21 -28 -4 1 7 -5 13 -13 14 -29 2 -31 4
-20 24 10 18 9 19 -16 10 -33 -13 -53 -2 -29 17 22 15 3 18 -26 3 -15 -9 -17
-15 -9 -29 7 -15 6 -20 -6 -25 -12 -4 -15 -2 -11 9 4 8 2 17 -3 20 -4 3 -7 -6
-5 -20 1 -14 -1 -25 -4 -25 -3 0 -19 -11 -36 -25 -16 -14 -25 -24 -18 -23 13
4 18 -15 5 -20 -14 -4 -43 86 -31 94 5 3 17 0 25 -7 14 -12 14 -14 -2 -26 -10
-7 -14 -13 -8 -13 18 1 48 30 51 50 3 18 0 19 -16 10 -11 -5 -23 -10 -28 -10
-4 1 9 10 30 21 31 16 36 23 28 38 -6 10 -18 24 -27 32 -12 9 -15 9 -10 2 10
-18 -9 -16 -23 1 -10 11 -7 17 11 30 27 19 34 20 44 5z m276 -45 c-2 -13 -10
-24 -18 -24 -7 0 -16 -4 -19 -10 -3 -6 1 -7 9 -4 9 3 16 1 16 -5 0 -6 -5 -11
-12 -11 -6 0 -9 -2 -6 -5 9 -10 38 7 31 18 -4 6 -1 7 6 3 7 -5 10 -14 7 -22
-3 -8 0 -14 7 -14 18 0 -15 -20 -34 -20 -9 0 -21 11 -27 25 -7 16 -17 23 -27
19 -11 -5 -15 1 -15 19 0 25 25 44 35 27 10 -15 35 -12 35 5 0 9 -8 14 -21 12
-12 -1 -23 3 -26 9 -2 6 10 9 30 6 30 -3 33 -7 29 -28z m-296 -26 c-4 6 -3 12
2 12 6 0 12 -6 15 -14 7 -18 -17 -28 -31 -14 -7 7 -16 6 -30 -1 -14 -7 -23 -8
-27 -1 -3 5 -11 10 -18 10 -7 0 -5 -6 5 -16 12 -12 20 -14 36 -5 25 13 32 14
32 2 0 -10 -27 -21 -44 -20 -5 0 -13 -5 -18 -13 -8 -10 -9 -10 -5 2 2 8 -2 22
-9 30 -9 10 -10 20 -3 30 7 12 11 12 17 2 12 -18 42 -4 35 16 -4 12 2 9 22 -8
16 -14 25 -19 21 -12z m434 21 c0 -5 5 -7 11 -3 6 3 29 -2 51 -12 34 -15 37
-19 22 -26 -15 -7 -14 -7 5 -4 24 5 81 -21 81 -36 0 -4 -19 -9 -42 -12 -86
-11 -93 -13 -53 -15 22 0 57 4 78 10 20 5 42 7 48 3 21 -13 -21 -26 -102 -31
-67 -5 -79 -3 -79 10 0 11 -16 17 -61 22 -44 5 -59 11 -55 20 3 8 0 16 -7 19
-7 3 6 3 27 -1 29 -4 37 -3 32 6 -5 7 1 20 13 30 11 10 18 21 14 25 -3 3 -1 6
5 6 7 0 12 -5 12 -11z m220 -9 c-17 -32 -41 -40 -73 -23 -20 10 -26 18 -19 25
12 12 35 1 27 -13 -11 -16 16 -10 42 11 32 25 36 25 23 0z m-299 -5 c0 -13
-41 -19 -41 -7 0 11 20 22 33 18 5 -1 8 -6 8 -11z m313 -35 c-5 -4 -20 -11
-34 -14 -25 -7 -25 -7 5 20 19 17 31 22 33 14 2 -6 0 -15 -4 -20z m-794 12 c0
-5 -25 -26 -55 -46 -109 -75 -165 -160 -165 -248 0 -38 -3 -49 -10 -38 -18 28
-11 95 16 148 27 55 113 141 173 172 43 23 41 22 41 12z m817 -69 c-10 -10
-17 -12 -21 -4 -4 6 0 14 8 17 9 3 16 11 16 17 0 7 -4 7 -12 -1 -7 -7 -19 -12
-27 -12 -10 0 -8 7 10 26 l24 25 8 -26 c7 -20 5 -31 -6 -42z m-608 11 c-6 -8
-18 -14 -25 -14 -8 0 -14 -4 -14 -10 0 -5 8 -6 18 -3 15 6 15 5 3 -10 -14 -18
-36 -24 -26 -7 8 13 -6 13 -25 0 -12 -8 -12 -12 -2 -18 14 -9 7 -18 -28 -37
-10 -6 -9 -2 3 12 13 15 15 23 7 28 -8 5 4 18 32 36 23 16 42 34 41 39 -2 5 4
7 12 3 12 -4 13 -9 4 -19z m15 -16 c-5 -9 -2 -9 9 1 14 11 21 11 43 -3 21 -15
28 -15 42 -4 15 11 16 11 4 -4 -10 -12 -10 -18 -1 -24 9 -5 7 -10 -5 -20 -11
-8 -13 -14 -7 -19 6 -3 11 -14 11 -24 0 -22 -36 -56 -44 -43 -7 12 3 42 15 42
4 0 6 7 2 16 -6 15 -8 15 -20 -2 -29 -39 -32 -50 -19 -75 8 -15 10 -34 5 -46
-7 -19 -58 -63 -74 -63 -3 0 -13 -7 -22 -15 -8 -8 -18 -13 -23 -10 -4 3 -11
-2 -14 -11 -3 -8 -10 -13 -15 -9 -24 14 -32 -58 -9 -80 6 -7 9 0 6 20 -4 42
16 44 23 2 5 -31 3 -34 -19 -31 -34 4 -41 19 -37 79 3 49 42 146 65 160 16 10
12 -6 -15 -59 -14 -27 -25 -57 -25 -65 1 -9 15 15 33 52 18 38 35 66 39 62 4
-4 -2 -25 -13 -47 -11 -22 -18 -45 -16 -51 2 -6 12 10 22 36 10 26 22 47 26
47 5 0 9 6 9 13 0 8 14 33 30 55 17 23 29 48 28 54 -2 7 3 12 10 11 6 -2 12 4
12 12 0 13 4 14 23 5 21 -11 21 -10 3 4 -11 9 -24 12 -30 7 -14 -11 -47 -10
-40 1 3 5 9 6 14 3 5 -3 11 -1 14 4 12 19 -10 19 -34 0 -14 -10 -19 -19 -12
-19 7 0 10 -5 7 -11 -4 -5 -12 -8 -18 -6 -7 3 -27 -9 -44 -26 -38 -35 -53 -32
-23 5 10 14 17 27 15 30 -3 3 8 4 23 3 23 -1 28 2 27 19 -3 25 3 36 16 36 6 0
7 -6 3 -12z m566 -17 c0 -14 -85 -31 -154 -31 -95 0 -81 16 18 22 46 3 92 10
102 16 19 11 34 7 34 -7z m24 -20 c11 -17 -51 -34 -144 -40 -87 -6 -91 -7 -48
-13 74 -12 165 10 211 50 28 25 21 -6 -8 -32 -37 -34 -134 -51 -210 -37 -32 6
-60 11 -61 11 -1 0 0 9 3 20 5 18 14 20 92 20 51 1 98 7 116 15 37 17 42 17
49 6z m-568 -28 c-2 -25 -59 -108 -64 -93 -2 6 10 30 28 53 l31 42 -40 -45
c-22 -24 -43 -42 -46 -39 -6 7 73 99 84 99 5 0 8 -8 7 -17z m-74 -33 c-17 -16
-34 -30 -38 -30 -4 0 7 16 26 35 18 19 36 33 38 30 2 -2 -9 -18 -26 -35z m689
-17 c16 -47 19 -114 7 -130 -5 -7 -7 -16 -4 -22 6 -8 -57 -71 -72 -71 -4 -1
-27 -5 -52 -10 -32 -6 -63 -5 -108 5 -67 16 -182 69 -182 85 0 15 12 12 45
-10 46 -31 151 -60 214 -60 53 0 151 33 138 46 -3 3 -16 -1 -29 -10 -35 -23
-117 -30 -183 -16 -61 13 -165 58 -165 72 0 11 1 11 63 -17 115 -51 233 -54
303 -8 38 24 21 27 -20 2 -31 -18 -48 -20 -124 -17 -90 4 -213 42 -202 63 3 6
9 9 13 7 5 -1 6 2 2 8 -3 5 -1 18 4 29 11 19 11 19 61 0 94 -36 254 -18 285
31 3 5 -10 0 -30 -12 -51 -29 -161 -36 -237 -13 -59 17 -64 21 -50 43 7 10 22
10 79 0 77 -13 162 -1 199 27 27 21 31 19 45 -22z m-752 4 c6 -8 8 -17 4 -20
-3 -4 -1 -7 5 -7 18 0 14 -17 -13 -58 -14 -21 -31 -61 -37 -90 -7 -29 -18 -52
-25 -52 -6 0 -18 -3 -27 -6 -11 -4 -16 0 -16 15 0 33 38 126 70 170 17 23 27
41 23 41 -13 0 -72 -93 -88 -139 -8 -24 -15 -56 -15 -72 0 -16 -5 -29 -11 -29
-18 0 -5 90 19 141 23 47 78 119 92 119 4 0 13 -6 19 -13z m234 -77 c21 -25
21 -30 1 -30 -20 0 -47 27 -39 40 9 15 19 12 38 -10z m-118 -150 c0 -49 -10
-65 -21 -35 -7 18 4 85 14 85 4 0 7 -22 7 -50z m-68 3 c-3 -15 -1 -36 5 -47 8
-14 7 -17 -4 -14 -17 6 -24 88 -7 88 7 0 9 -10 6 -27z m35 -14 c4 -42 -5 -61
-16 -33 -9 24 -7 74 3 74 5 0 11 -18 13 -41z"/>
<path d="M1501 2333 c56 -51 92 -127 113 -243 3 -14 3 -2 2 25 -5 76 -43 164
-91 213 -23 23 -47 42 -54 42 -6 0 7 -17 30 -37z"/>
<path d="M1438 2339 c62 -31 104 -95 138 -214 l14 -50 -4 42 c-5 52 -49 149
-84 186 -29 31 -73 57 -94 57 -7 0 6 -10 30 -21z"/>
<path d="M1583 1995 c-10 -11 -10 -15 0 -18 9 -4 9 -6 0 -6 -7 -1 -13 -8 -13
-17 0 -14 1 -14 16 0 8 9 14 25 12 35 -2 16 -5 17 -15 6z"/>
<path d="M1640 1975 c0 -8 -7 -15 -15 -15 -10 0 -15 -9 -14 -27 0 -16 3 -22 6
-15 2 6 12 12 21 13 14 0 13 2 -3 9 -17 7 -17 9 -2 9 10 1 17 9 17 21 0 11 -2
20 -5 20 -3 0 -5 -7 -5 -15z"/>
<path d="M1600 1693 c0 -3 69 -33 75 -33 2 0 1 8 -2 18 -3 13 -14 18 -39 18
-19 0 -34 -1 -34 -3z"/>
<path d="M1604 1665 c11 -8 26 -15 33 -15 7 0 13 -5 13 -10 0 -7 -6 -7 -19 0
-11 5 -29 6 -41 2 -19 -7 -17 -10 22 -31 24 -12 34 -15 24 -7 -11 9 -23 16
-28 16 -4 0 -8 5 -8 10 0 6 13 4 30 -5 37 -19 39 -19 33 5 -3 12 -18 27 -34
35 -36 19 -50 19 -25 0z"/>
<path d="M1746 1826 c4 -9 -3 -16 -18 -19 -13 -2 0 -4 27 -4 28 0 40 2 28 4
-13 2 -23 11 -23 19 0 8 -4 14 -10 14 -5 0 -7 -6 -4 -14z"/>
<path d="M1707 1778 c6 -11 63 -10 63 1 0 6 -15 9 -34 8 -19 -1 -32 -5 -29 -9z"/>
<path d="M1391 1569 c-13 -22 -21 -42 -19 -45 3 -2 15 14 27 37 13 22 21 42
19 45 -3 2 -15 -14 -27 -37z"/>
<path d="M1985 1626 c-42 -22 -139 -28 -220 -14 l-40 7 40 -13 c79 -28 199
-16 247 24 28 24 24 23 -27 -4z"/>
<path d="M2040 1594 c0 -16 -54 -43 -107 -54 -49 -11 -54 -10 -213 25 -17 3
-14 0 10 -11 59 -27 154 -39 213 -25 53 12 118 53 105 67 -5 4 -8 3 -8 -2z"/>
<path d="M2034 1549 c-3 -6 -25 -20 -48 -30 -54 -24 -138 -24 -217 1 -74 22
-89 20 -27 -5 55 -22 172 -30 224 -16 33 9 103 61 81 61 -3 0 -9 -5 -13 -11z"/>
<path d="M1257 1563 c-30 -47 -50 -107 -44 -130 3 -12 5 -8 6 9 0 14 16 56 35
92 38 73 39 87 3 29z"/>
<path d="M1135 1744 c-62 -47 -90 -79 -119 -135 -30 -55 -40 -106 -29 -137 7
-19 9 -14 9 25 0 83 53 166 159 251 55 43 38 40 -20 -4z"/>
<path d="M1156 1680 c-84 -79 -126 -177 -107 -245 7 -25 8 -22 8 25 0 72 38
147 110 217 29 29 51 53 48 53 -3 0 -30 -22 -59 -50z"/>
<path d="M1190 1628 c-58 -72 -80 -123 -78 -183 l1 -50 7 55 c8 67 35 120 90
183 23 26 37 47 32 47 -6 0 -29 -24 -52 -52z"/>
<path d="M1270 1025 l0 -165 25 0 25 0 0 165 0 165 -25 0 -25 0 0 -165z"/>
<path d="M840 1142 c-40 -20 -80 -74 -80 -109 0 -104 118 -168 209 -112 34 20
34 21 14 40 -18 18 -21 19 -49 4 -38 -20 -46 -19 -78 6 -51 40 -23 129 42 129
15 0 37 -7 49 -15 16 -11 23 -12 30 -2 26 32 24 38 -19 57 -53 24 -74 25 -118
2z"/>
<path d="M1073 1146 c-35 -16 -49 -49 -39 -90 5 -19 20 -30 67 -47 43 -16 59
-27 57 -38 -5 -23 -47 -25 -90 -3 l-36 19 -11 -23 c-16 -36 25 -59 107 -59 55
0 66 3 83 24 39 48 16 100 -53 120 -66 20 -87 44 -49 56 11 3 36 -1 57 -10 20
-8 38 -14 39 -13 1 2 7 13 14 25 9 19 8 24 -8 33 -35 18 -104 21 -138 6z"/>
<path d="M1350 1154 c0 -3 18 -62 41 -130 l40 -124 33 0 c32 0 34 2 49 58 8
31 18 72 22 90 4 18 9 31 12 29 2 -3 13 -44 25 -91 l20 -87 35 3 34 3 40 120
c21 66 39 123 39 127 0 4 -14 7 -32 5 -32 -2 -32 -3 -52 -95 -11 -50 -24 -92
-28 -92 -5 0 -8 6 -8 13 0 6 -9 49 -21 93 -21 80 -22 82 -52 80 -30 -2 -31 -3
-53 -89 -12 -49 -24 -90 -26 -93 -3 -2 -13 31 -22 74 -24 100 -29 109 -66 110
-16 0 -30 -2 -30 -4z"/>
<path d="M1770 1028 l0 -128 100 0 c100 0 100 0 100 25 0 24 -2 25 -70 25 -68
0 -70 1 -70 25 0 24 3 25 60 25 57 0 60 1 60 25 0 24 -3 25 -60 25 -59 0 -60
0 -60 29 l0 28 70 -5 70 -5 0 29 0 29 -100 0 -100 0 0 -127z"/>
<path d="M2010 1028 l0 -128 80 0 c89 0 134 16 143 51 7 27 -7 65 -28 72 -14
6 -13 10 6 37 19 25 21 33 11 54 -13 29 -28 33 -134 39 l-78 4 0 -129z m138
73 c8 -5 12 -17 10 -27 -2 -14 -13 -20 -45 -22 -41 -3 -42 -2 -38 25 2 15 4
29 4 31 2 6 57 1 69 -7z m12 -106 c22 -26 4 -45 -43 -45 -40 0 -43 1 -41 28 1
15 3 28 3 30 3 9 71 -1 81 -13z"/>
<path d="M630 675 l0 -55 35 0 c19 0 35 5 35 10 0 6 -11 10 -25 10 -23 0 -25
4 -25 45 0 25 -4 45 -10 45 -5 0 -10 -25 -10 -55z"/>
<path d="M779 728 c0 -2 -1 -27 -2 -56 l-2 -52 43 0 c23 0 42 5 42 11 0 6 -14
9 -32 7 -24 -2 -33 1 -33 12 0 10 8 14 28 12 15 -2 27 1 27 7 0 5 -11 11 -25
13 -37 4 -35 22 3 26 46 5 40 22 -8 22 -22 0 -40 -1 -41 -2z"/>
<path d="M940 710 c-9 -18 -7 -23 19 -38 40 -22 40 -36 0 -28 -22 4 -29 2 -27
-7 7 -18 63 -21 77 -3 15 18 7 34 -25 46 -30 12 -31 32 -1 30 35 -3 43 0 27
10 -25 16 -59 11 -70 -10z"/>
<path d="M1100 716 c-15 -19 -1 -41 31 -51 32 -10 22 -28 -12 -21 -22 4 -29 2
-27 -7 7 -18 63 -21 77 -3 15 18 7 34 -25 46 -33 13 -31 34 2 26 19 -5 25 -3
22 6 -7 19 -53 21 -68 4z"/>
<path d="M1360 675 c0 -30 5 -55 10 -55 6 0 10 25 10 55 0 30 -4 55 -10 55 -5
0 -10 -25 -10 -55z"/>
<path d="M1472 718 c-20 -20 -14 -38 18 -49 39 -14 39 -33 0 -27 -19 3 -29 1
-27 -6 2 -6 19 -11 38 -11 28 0 35 4 37 23 3 18 -3 25 -27 33 -36 13 -31 34 6
24 18 -4 24 -2 21 7 -6 18 -50 22 -66 6z"/>
<path d="M1723 675 c-1 -38 2 -55 11 -55 8 0 11 12 8 38 -3 35 -2 36 12 18 9
-11 16 -26 16 -33 0 -23 19 -14 35 17 21 40 27 38 19 -5 -4 -23 -2 -35 5 -35
7 0 11 21 11 55 0 30 -4 55 -10 55 -5 0 -18 -17 -29 -37 l-19 -38 -16 38 c-24
54 -41 47 -43 -18z"/>
<path d="M1940 710 c-11 -11 -20 -28 -20 -38 0 -26 31 -52 63 -52 54 0 78 64
35 94 -30 21 -54 20 -78 -4z m70 -15 c20 -24 3 -55 -30 -55 -20 0 -31 6 -35
20 -8 25 10 50 35 50 10 0 23 -7 30 -15z"/>
<path d="M2120 676 c0 -31 5 -56 10 -56 6 0 10 7 10 15 0 8 7 15 15 15 9 0 18
-7 21 -15 4 -8 13 -15 21 -15 12 0 13 3 4 14 -9 11 -9 19 1 35 19 30 0 55 -46
59 l-36 3 0 -55z m65 14 c0 -8 -10 -16 -22 -18 -18 -3 -23 2 -23 18 0 16 5 21
23 18 12 -2 22 -10 22 -18z"/>
<path d="M2290 675 l0 -55 46 0 c29 0 43 4 39 11 -4 5 -18 9 -33 7 -14 -2 -27
3 -29 10 -3 8 6 12 26 12 17 0 31 5 31 10 0 6 -13 10 -30 10 -20 0 -30 5 -30
15 0 11 11 15 36 15 21 0 33 4 29 10 -3 6 -24 10 -46 10 l-39 0 0 -55z"/>
</g>
</svg>
